<?xml version="1.0" standalone="no"?>
<!DOCTYPE svg PUBLIC "-//W3C//DTD SVG 1.1//EN" "http://www.w3.org/Graphics/SVG/1.1/DTD/svg11.dtd">
<svg width="100%" height="100%" viewBox="0 0 1280 800" version="1.1" xmlns="http://www.w3.org/2000/svg" xmlns:xlink="http://www.w3.org/1999/xlink" xml:space="preserve" style="fill-rule:evenodd;clip-rule:evenodd;stroke-linejoin:round;stroke-miterlimit:1.41421;">
    <g transform="matrix(0.821544,0,0,0.862697,92.7019,408.525)">
        <text x="0px" y="0px" style="font-family:'Roboto-Regular';font-size:414.347px;fill:rgb(255,64,129);">Z</text>
    </g>
    <g transform="matrix(1.11674,0,0,1.03154,310.985,359.824)">
        <text x="0px" y="0px" style="font-family:'Roboto-Regular';font-size:250.287px;fill:rgb(255,64,129);">OOOP</text>
    </g>
    <g transform="matrix(2.05329,0,0,2.05329,283.182,549.836)">
        <path d="M183.509,-11.212C183.77,-11.473 183.77,-11.838 183.3,-11.733C182.987,-11.681 182.674,-11.681 182.309,-11.681C182.414,-12.098 182.414,-12.463 182.466,-12.881C182.727,-16.635 181.214,-16.948 179.963,-18.617C178.92,-20.025 178.033,-20.442 176.469,-20.338C174.07,-20.181 171.723,-18.46 169.794,-16.062C168.229,-14.132 166.248,-12.411 164.162,-12.098C164.162,-12.359 164.214,-12.62 164.214,-12.881C164.475,-16.635 162.91,-16.948 161.711,-18.617C160.668,-20.077 159.781,-20.494 158.217,-20.338C155.088,-20.077 151.907,-17.105 149.873,-13.558C147.579,-9.491 146.744,-4.902 149.091,-1.825C151.177,0.887 153.732,0.991 155.61,0.365C159.469,-0.887 162.702,-6.153 163.797,-10.638C164.944,-10.638 166.039,-10.847 167.03,-11.316C165.622,-7.822 165.466,-4.328 167.343,-1.825C169.377,0.887 172.036,0.991 173.914,0.365C177.72,-0.887 180.954,-6.153 182.049,-10.586C182.674,-10.638 183.196,-10.847 183.509,-11.212ZM161.137,-16.531C161.242,-15.592 161.189,-14.289 160.824,-12.724C159.781,-13.506 159.364,-14.862 159.573,-16.322C159.781,-17.887 160.929,-18.2 161.137,-16.531ZM179.076,-12.672C178.242,-13.454 177.616,-14.966 177.877,-16.374C178.138,-17.887 179.181,-18.2 179.389,-16.531C179.493,-15.592 179.441,-14.289 179.076,-12.672ZM178.659,-11.316C178.242,-10.012 177.616,-8.552 176.782,-7.04C174.226,-2.347 171.045,-0.469 169.69,-1.669C168.386,-2.816 169.012,-7.666 171.254,-11.577C172.401,-13.558 173.861,-15.332 175.269,-16.427C175.269,-14.549 176.521,-12.724 177.72,-11.89C177.981,-11.629 178.294,-11.42 178.659,-11.316ZM157.018,-16.427C157.018,-14.236 158.739,-12.255 160.407,-11.368C160.042,-10.065 159.364,-8.604 158.53,-7.04C155.975,-2.347 152.846,-0.574 151.438,-1.669C149.978,-2.816 150.76,-7.666 153.002,-11.577C154.149,-13.558 155.61,-15.332 157.018,-16.427Z" style="fill:rgb(92,107,192);"/>
        <path d="M276.593,-4.693C277.323,-6.101 277.323,-7.457 277.062,-7.926C276.802,-8.396 276.384,-8.344 276.124,-7.874C274.142,-4.224 271.43,-0.782 269.292,-0.678C267.415,-0.574 267.206,-2.712 268.562,-5.736C269.762,-8.448 272.317,-12.255 273.464,-14.601C274.716,-17.209 274.298,-19.451 273.516,-20.39C273.099,-20.859 272.682,-20.755 272.213,-20.077C270.596,-17.835 269.084,-14.236 265.851,-8.969C263.087,-4.433 260.166,-0.887 258.133,-1.043C256.985,-1.147 256.829,-2.972 257.872,-5.528C258.863,-7.979 260.062,-10.065 261.939,-13.141C263.817,-16.218 264.077,-18.408 262.93,-20.129C262.513,-20.598 262.044,-20.651 261.627,-20.077C261.001,-19.19 260.166,-18.043 259.645,-17.209C257.872,-14.341 255.004,-11.89 252.031,-11.838C252.083,-12.255 252.136,-12.568 252.136,-12.881C252.396,-16.74 250.936,-17.052 249.685,-18.617C248.59,-20.025 247.703,-20.494 246.139,-20.39C243.01,-20.181 239.777,-17.261 237.795,-13.663C235.5,-9.491 234.718,-5.006 237.013,-1.929C239.046,0.782 241.706,0.991 243.635,0.365C247.338,-0.887 250.519,-6.049 251.718,-10.43C253.335,-10.273 254.952,-10.69 256.412,-11.368C255.525,-9.752 254.847,-8.187 254.43,-6.884C253.283,-3.442 253.387,0.365 257.09,0.678C260.062,0.939 262.722,-1.825 264.547,-4.224C264.13,-1.199 265.433,0.887 268.823,0.887C271.9,0.887 275.081,-1.721 276.593,-4.693ZM249.111,-16.583C249.215,-15.697 249.163,-14.393 248.746,-12.881C247.807,-13.715 247.39,-15.019 247.547,-16.427C247.703,-17.887 248.902,-18.252 249.111,-16.583ZM248.381,-11.368C247.912,-10.065 247.39,-8.657 246.556,-7.144C243.948,-2.399 240.715,-0.521 239.359,-1.721C238.003,-2.92 238.734,-7.666 240.924,-11.577C242.071,-13.611 243.635,-15.384 244.991,-16.531C244.991,-14.393 246.608,-12.359 248.381,-11.368Z" style="fill:rgb(92,107,192);"/>
        <path d="M333.539,-15.644C335.155,-17.678 335.833,-19.034 335.677,-20.129C335.572,-20.807 335.312,-20.911 334.738,-20.338C331.192,-16.687 324.361,-7.77 320.658,-1.669C321.336,-7.249 322.327,-10.117 323.318,-14.08C324.1,-17.209 323.787,-19.086 322.066,-20.546C321.649,-20.911 321.18,-20.911 320.971,-20.129C319.98,-16.374 318.364,-12.985 315.443,-12.255C315.443,-12.516 315.495,-12.724 315.495,-12.881C315.756,-16.74 314.192,-17.052 312.992,-18.617C311.897,-20.077 311.063,-20.494 309.498,-20.39C306.369,-20.181 303.136,-17.261 301.155,-13.663C298.86,-9.491 298.026,-5.006 300.372,-1.929C302.458,0.834 304.909,0.939 306.891,0.313C310.802,-0.887 314.035,-6.31 315.078,-10.742C316.538,-10.899 318.051,-11.473 318.989,-12.516C318.311,-9.126 317.738,-5.841 317.633,-3.755C317.529,-1.043 318.207,0 320.189,0.991C320.762,1.252 321.023,0.887 321.284,0.469C326.238,-7.405 330.983,-12.359 333.539,-15.644ZM312.106,-12.881C311.115,-13.767 310.646,-15.071 310.854,-16.427C311.063,-17.939 312.21,-18.252 312.419,-16.635C312.523,-15.697 312.471,-14.393 312.106,-12.881ZM311.689,-11.42C311.271,-10.117 310.646,-8.657 309.811,-7.144C307.256,-2.399 304.075,-0.626 302.667,-1.773C301.259,-2.92 302.041,-7.666 304.284,-11.577C305.431,-13.558 306.891,-15.384 308.299,-16.531C308.299,-14.393 309.968,-12.359 311.689,-11.42Z" style="fill:rgb(92,107,192);"/>
        <text x="0px" y="0px" style="font-family:'SignPainter-HouseScript';font-size:52.148px;fill:rgb(92,107,192);">find the f<tspan x="183.457px " y="0px ">d</tspan> y<tspan x="275.289px 286.762px 332.339px " y="0px 0px 0px "> le</tspan></text>
    </g>
</svg>
